%FSLAX44Y44*%
%MOMM*%
%TF.GenerationSoftware,ClaudeCode,GerberGenerator*%
%TF.Part,Single*%
%TF.JobID,PowerBoard_v3*%
G04 Top Copper - Power Board v3.0*
%ADD10R,4.0640X4.0640*%
%ADD11C,4.0640*%
%ADD12C,3.0480*%
%ADD13C,1.5240*%
%ADD14C,2.5400*%
%ADD15R,1.2700X1.5240*%
%ADD16C,0.5080*%
%ADD17C,1.0160*%
%ADD18C,5.0800*%
D10*
X30480Y119380D03*
D10*
X81280Y119380D03*
D11*
X200660Y119380D03*
D11*
X241300Y119380D03*
D12*
X388620Y119380D03*
D12*
X408940Y119380D03*
D10*
X530860Y119380D03*
D10*
X581660Y119380D03*
D13*
X680720Y119380D03*
D13*
X706120Y119380D03*
D13*
X50800Y299720D03*
D13*
X76200Y299720D03*
D14*
X144780Y299720D03*
D14*
X154940Y299720D03*
D13*
X259080Y299720D03*
D13*
X284480Y299720D03*
D13*
X309880Y299720D03*
D14*
X403860Y299720D03*
D14*
X414020Y299720D03*
D13*
X530860Y299720D03*
D13*
X556260Y299720D03*
D13*
X629920Y299720D03*
D13*
X655320Y299720D03*
D15*
X233680Y220980D03*
D15*
X243840Y220980D03*
D15*
X375920Y220980D03*
D15*
X386080Y220980D03*
D18*
X101600Y119380D02*
X220980Y119380D01*
D17*
X101600Y119380D02*
X101600Y325120D01*
D17*
X101600Y325120D02*
X76200Y325120D01*
D17*
X101600Y119380D02*
X101600Y238760D01*
D17*
X101600Y238760D02*
X149860Y238760D01*
D17*
X149860Y238760D02*
X149860Y299720D01*
D17*
X149860Y299720D02*
X259080Y299720D01*
D17*
X259080Y299720D02*
X259080Y299720D01*
D17*
X259080Y299720D02*
X259080Y220980D01*
D17*
X259080Y220980D02*
X238760Y220980D01*
D18*
X241300Y119380D02*
X398780Y119380D01*
D18*
X398780Y119380D02*
X601980Y119380D01*
D18*
X601980Y119380D02*
X706120Y119380D01*
D16*
X309880Y299720D02*
X408940Y299720D01*
D16*
X408940Y299720D02*
X408940Y299720D01*
D16*
X408940Y299720D02*
X556260Y299720D01*
D16*
X556260Y299720D02*
X556260Y299720D01*
D16*
X556260Y299720D02*
X655320Y299720D01*
D16*
X309880Y299720D02*
X381000Y299720D01*
D16*
X381000Y299720D02*
X381000Y220980D01*
M02*
