M48
INCH,TZ
%
T01C0.035
T02C0.040
T03C0.047
%
G90
G05
X0.1200Y0.4700
X0.3200Y0.4700
X0.7900Y0.4700
X0.9500Y0.4700
X1.5300Y0.4700
X1.6100Y0.4700
X2.0900Y0.4700
X2.2900Y0.4700
X2.6800Y0.4700
X2.7800Y0.4700
X0.2000Y1.1800
X0.3000Y1.1800
X0.5700Y1.1800
X0.6100Y1.1800
X1.0200Y1.1800
X1.1200Y1.1800
X1.2200Y1.1800
X1.5900Y1.1800
X1.6300Y1.1800
X2.0900Y1.1800
X2.1900Y1.1800
X2.4800Y1.1800
X2.5800Y1.1800
T01
X0.1200Y0.4700
X0.3200Y0.4700
X0.7900Y0.4700
X0.9500Y0.4700
X1.5300Y0.4700
X1.6100Y0.4700
X2.0900Y0.4700
X2.2900Y0.4700
X2.6800Y0.4700
X2.7800Y0.4700
X0.2000Y1.1800
X0.3000Y1.1800
X0.5700Y1.1800
X0.6100Y1.1800
X1.0200Y1.1800
X1.1200Y1.1800
X1.2200Y1.1800
X1.5900Y1.1800
X1.6300Y1.1800
X2.0900Y1.1800
X2.1900Y1.1800
X2.4800Y1.1800
X2.5800Y1.1800
M30
